HIERARCHY
ROOT Hips
{
	OFFSET 0.000000 0.000000 0.000000
	CHANNELS 6 Xposition Yposition Zposition Zrotation Yrotation Xrotation 
	JOINT LHipJoint
	{
		OFFSET 0.000000 0.000000 0.000000
		CHANNELS 3 Zrotation Yrotation Xrotation
		JOINT LeftUpLeg
		{
			OFFSET 1.363060 -1.794630 0.839290
			CHANNELS 3 Zrotation Yrotation Xrotation
			JOINT LeftLeg
			{
				OFFSET 2.448110 -6.726130 0.000000
				CHANNELS 3 Zrotation Yrotation Xrotation
				JOINT LeftFoot
				{
					OFFSET 2.562200 -7.039590 0.000000
					CHANNELS 3 Zrotation Yrotation Xrotation
					JOINT LeftToeBase
					{
						OFFSET 0.157640 -0.433110 2.322550
						CHANNELS 3 Zrotation Yrotation Xrotation
						End Site
						{
							OFFSET 0.000000 0.000000 0.000000
						}
					}
				}
			}
		}
	}
	JOINT RHipJoint
	{
		OFFSET 0.000000 0.000000 0.000000
		CHANNELS 3 Zrotation Yrotation Xrotation
		JOINT RightUpLeg
		{
			OFFSET -1.305520 -1.794630 0.839290
			CHANNELS 3 Zrotation Yrotation Xrotation
			JOINT RightLeg
			{
				OFFSET -2.542530 -6.985550 0.000000
				CHANNELS 3 Zrotation Yrotation Xrotation
				JOINT RightFoot
				{
					OFFSET -2.568260 -7.056230 0.000000
					CHANNELS 3 Zrotation Yrotation Xrotation
					JOINT RightToeBase
					{
						OFFSET -0.164730 -0.452590 2.363150
						CHANNELS 3 Zrotation Yrotation Xrotation
						End Site
						{
							OFFSET 0.000000 0.000000 0.000000
						}
					}
				}
			}
		}
	}
	JOINT LowerBack
	{
		OFFSET 0.000000 0.000000 0.000000
		CHANNELS 3 Zrotation Yrotation Xrotation
		JOINT Spine
		{
			OFFSET 0.028270 2.035590 -0.193380
			CHANNELS 3 Zrotation Yrotation Xrotation
			JOINT Spine1
			{
				OFFSET 0.056720 2.048850 -0.042750
				CHANNELS 3 Zrotation Yrotation Xrotation
				JOINT Neck
				{
					OFFSET 0.000000 0.000000 0.000000
					CHANNELS 3 Zrotation Yrotation Xrotation
					JOINT Neck1
					{
						OFFSET -0.054170 1.746240 0.172020
						CHANNELS 3 Zrotation Yrotation Xrotation
						JOINT Head
						{
							OFFSET 0.104070 1.761360 -0.123970
							CHANNELS 3 Zrotation Yrotation Xrotation
							End Site
							{
								OFFSET 0.000000 0.000000 0.000000
							}
						}
					}
				}
				JOINT LeftShoulder
				{
					OFFSET 0.000000 0.000000 0.000000
					CHANNELS 3 Zrotation Yrotation Xrotation
					JOINT LeftArm
					{
						OFFSET 3.362410 1.200890 -0.311210
						CHANNELS 3 Zrotation Yrotation Xrotation
						JOINT LeftForeArm
						{
							OFFSET 4.983000 -0.000000 -0.000000
							CHANNELS 3 Zrotation Yrotation Xrotation
							JOINT LeftHand
							{
								OFFSET 3.483560 -0.000000 -0.000000
								CHANNELS 3 Zrotation Yrotation Xrotation
								JOINT LeftFingerBase
								{
									OFFSET 0.000000 0.000000 0.000000
									CHANNELS 3 Zrotation Yrotation Xrotation
									JOINT LeftHandIndex1
									{
										OFFSET 0.715260 -0.000000 -0.000000
										CHANNELS 3 Zrotation Yrotation Xrotation
										End Site
										{
											OFFSET 0.000000 0.000000 0.000000
										}
									}
								}
								JOINT LThumb
								{
									OFFSET 0.000000 0.000000 0.000000
									CHANNELS 3 Zrotation Yrotation Xrotation
									End Site
									{
										OFFSET 0.000000 0.000000 0.000000
									}
								}
							}
						}
					}
				}
				JOINT RightShoulder
				{
					OFFSET 0.000000 0.000000 0.000000
					CHANNELS 3 Zrotation Yrotation Xrotation
					JOINT RightArm
					{
						OFFSET -3.136600 1.374050 -0.404650
						CHANNELS 3 Zrotation Yrotation Xrotation
						JOINT RightForeArm
						{
							OFFSET -5.241900 -0.000000 -0.000000
							CHANNELS 3 Zrotation Yrotation Xrotation
							JOINT RightHand
							{
								OFFSET -3.444170 -0.000000 -0.000000
								CHANNELS 3 Zrotation Yrotation Xrotation
								JOINT RightFingerBase
								{
									OFFSET 0.000000 0.000000 0.000000
									CHANNELS 3 Zrotation Yrotation Xrotation
									JOINT RightHandIndex1
									{
										OFFSET -0.622530 -0.000000 -0.000000
										CHANNELS 3 Zrotation Yrotation Xrotation
										End Site
										{
											OFFSET 0.000000 0.000000 0.000000
										}
									}
								}
								JOINT RThumb
								{
									OFFSET 0.000000 0.000000 0.000000
									CHANNELS 3 Zrotation Yrotation Xrotation
									End Site
									{
										OFFSET 0.000000 0.000000 0.000000
									}
								}
							}
						}
					}
				}
			}
		}
	}
}
MOTION
Frames: 7
Frame Time: 0.008333
-23.309404 18.274781 3.122423 -179.868219 6.978123 -163.579009 -6.489469 -1.396908 -1.311065 -5.170484 -17.464008 -18.088140 -0.676474 7.853609 21.583259 -0.724732 5.460038 2.085248 0.008900 -0.610300 -1.677000 5.525604 0.954522 -0.565433 8.785805 13.029426 -14.881282 0.098886 -7.210274 19.242452 6.002842 -24.172516 -4.395975 -0.239900 3.152100 -8.702400 -3.397680 -0.106456 -8.866510 1.665665 0.723127 -10.156613 0.096092 0.780084 0.202832 -5.418014 3.456062 -0.257649 12.942012 2.474430 0.274247 2.255100 0.813400 -2.547300 -7.566362 -7.994642 1.974383 -84.366155 1.427103 47.965232 16.057436 -18.822561 -3.469728 -0.639434 -0.447442 25.939363 -36.322394 28.642513 -19.728800 -7.125000 0.000000 0.000000 -62.382200 49.590000 -10.943800 6.414673 5.921478 1.403694 87.588666 -3.347021 37.726108 -15.301956 20.393451 -2.438920 -0.274066 -0.002357 15.607798 -1.767796 5.558264 -0.147800 7.125000 0.000000 0.000000 18.514200 -24.320800 9.742900 
-23.311962 18.272779 3.120421 -179.850887 6.923734 -163.561081 -6.490855 -1.397561 -1.323702 -5.146336 -17.587167 -18.061750 -0.668882 7.861990 21.612347 -0.773413 5.572358 2.039808 0.010800 -0.671000 -1.844100 5.524794 0.955920 -0.555392 8.817143 12.860274 -14.935899 0.105723 -7.197574 19.195315 5.989583 -24.133898 -4.322067 -0.256400 3.258000 -8.998000 -3.361269 -0.104756 -8.876029 1.684865 0.722895 -10.174372 0.075090 0.783872 0.190731 -5.638833 3.466851 -0.290898 13.192225 2.448801 0.267561 2.354000 0.795400 -2.547300 -7.565238 -8.020147 1.972573 -84.459000 1.324908 47.843590 15.913092 -18.631937 -3.421131 -0.643534 -0.447934 26.048029 -36.367674 28.653639 -19.766800 -7.125000 0.000000 0.000000 -62.425600 49.593000 -10.966100 6.424385 5.897182 1.401356 87.616575 -3.496938 37.467487 -15.518194 20.647789 -2.505156 -0.270784 -0.020097 15.819588 -2.131114 5.305296 -0.176600 7.125000 0.000000 0.000000 18.282400 -24.545900 9.506500 
-23.310516 18.274781 3.115861 -179.771520 6.942216 -163.560661 -6.483709 -1.392626 -1.315963 -5.074687 -17.575039 -18.037739 -0.666406 7.865365 21.617275 -0.777952 5.587039 2.035714 0.011700 -0.698300 -1.919000 5.532876 0.950870 -0.555105 8.897495 12.932532 -14.877594 0.112931 -7.186968 19.172068 5.988487 -24.132967 -4.421547 -0.228300 3.075600 -8.489300 -3.345014 -0.087740 -8.913370 1.751310 0.750319 -10.166440 0.117924 0.804032 0.223772 -5.741337 3.467330 -0.166019 13.218825 2.439480 -0.012007 2.387400 0.770800 -2.637200 -7.570254 -8.039458 1.965904 -84.581102 1.222018 47.836222 15.861481 -18.564274 -3.410997 -0.645529 -0.444579 25.947530 -36.495733 29.034787 -20.064400 -7.125000 0.000000 0.000000 -62.900700 49.817500 -11.623700 6.424352 5.883609 1.396544 87.535015 -3.464495 37.821546 -15.521699 20.622777 -2.500334 -0.262722 -0.054467 15.290973 -2.751716 4.815656 -0.216400 7.125000 0.000000 0.000000 17.890900 -24.986800 9.088100 
-23.305622 18.275448 3.112302 -179.726747 6.943625 -163.574241 -6.477260 -1.388765 -1.303751 -5.033421 -17.496493 -18.050274 -0.664606 7.873059 21.630656 -0.750327 5.525205 2.039568 0.014200 -0.769100 -2.113700 5.545575 0.936695 -0.558873 8.939470 13.193460 -14.727501 0.117378 -7.172761 19.136433 6.045633 -24.335992 -4.485415 -0.212700 2.969000 -8.192500 -3.363677 -0.117570 -8.935675 1.803123 0.717768 -10.154620 0.169249 0.793381 0.266211 -5.708823 3.501413 0.095769 13.090539 2.501634 -0.581408 2.366300 0.764400 -2.821100 -7.577002 -8.058968 1.956741 -84.651153 1.146458 47.829741 15.826020 -18.513752 -3.402708 -0.649606 -0.437431 25.782912 -36.379162 29.515090 -20.244100 -7.125000 0.000000 0.000000 -63.325300 50.142800 -12.485500 6.423808 5.873719 1.386849 87.610572 -3.593496 37.480936 -15.759537 20.919278 -2.577316 -0.258248 -0.052228 15.378084 -2.657112 4.735116 -0.205100 7.125000 0.000000 0.000000 17.967900 -25.066000 9.096200 
-23.303843 18.273224 3.109967 -179.711223 6.905521 -163.555211 -6.469666 -1.399639 -1.302283 -5.023770 -17.390201 -18.117599 -0.664053 7.877555 21.638824 -0.713045 5.438020 2.050581 0.011100 -0.681700 -1.873400 5.552178 0.927529 -0.561117 8.954225 13.326843 -14.664964 0.117978 -7.162703 19.101563 6.097009 -24.525792 -4.403270 -0.244900 3.184600 -8.793100 -3.359715 -0.142187 -8.967551 1.833344 0.685162 -10.158999 0.172850 0.786032 0.304815 -5.853292 3.664398 0.404845 13.294905 2.687575 -1.233630 2.453000 0.804200 -3.045500 -7.577610 -8.114591 1.949801 -84.753696 1.034827 47.530653 15.684457 -18.317922 -3.350070 -0.656027 -0.435465 26.011334 -36.234071 29.517891 -20.145400 -7.125000 0.000000 0.000000 -63.237700 50.172500 -12.512300 6.430276 5.829395 1.372908 87.512084 -3.691927 37.810671 -15.938083 21.136266 -2.636542 -0.269767 -0.057371 14.858469 -2.838090 4.950948 -0.229500 7.125000 0.000000 0.000000 17.814400 -24.855400 9.102900 
-23.304510 18.270332 3.109856 -179.678954 6.890212 -163.621494 -6.457910 -1.405968 -1.281115 -5.036067 -17.141196 -18.152421 -0.667190 7.879185 21.642115 -0.605308 5.184740 2.097062 0.006300 -0.510500 -1.402900 5.555726 0.911541 -0.555877 8.999937 13.431752 -14.532816 0.117437 -7.163570 19.098266 6.133298 -24.662649 -4.404195 -0.278300 3.393100 -9.375100 -3.317384 -0.096599 -8.912306 1.806463 0.723808 -10.122065 0.118278 0.808755 0.316243 -5.906858 3.864346 0.797521 13.539616 2.928949 -1.972827 2.534100 0.861000 -3.311500 -7.577053 -8.178813 1.947423 -84.809041 0.877466 47.214924 15.531144 -18.106605 -3.295569 -0.662243 -0.434095 26.352809 -36.246734 29.427232 -20.105800 -7.125000 0.000000 0.000000 -63.154500 50.116700 -12.360000 6.435971 5.782089 1.353129 87.572563 -3.745560 37.665697 -16.190981 21.438537 -2.719565 -0.272257 -0.069900 14.638169 -3.114604 4.893401 -0.251800 7.125000 0.000000 0.000000 17.621500 -24.899700 8.975500 
-23.305178 18.270443 3.108187 -179.673173 6.895057 -163.699470 -6.464548 -1.391078 -1.267970 -5.039271 -17.191865 -18.047019 -0.666521 7.877251 21.647000 -0.601083 5.170856 2.076776 0.006800 -0.533400 -1.465800 5.556711 0.897881 -0.541268 9.016205 13.425627 -14.443224 0.123080 -7.162726 19.094082 6.117722 -24.604357 -4.521049 -0.272400 3.357300 -9.275000 -3.303126 -0.066907 -8.864154 1.760010 0.745926 -10.076311 0.078590 0.815646 0.333206 -5.807119 3.974427 1.068112 13.544141 3.091069 -2.538812 2.528000 0.898600 -3.507700 -7.578235 -8.212016 1.945406 -84.796360 0.766302 47.060760 15.438542 -17.978050 -3.262191 -0.666404 -0.432784 26.469475 -36.188931 29.397135 -20.049000 -7.125000 0.000000 0.000000 -63.086900 50.109600 -12.317600 6.436910 5.759755 1.340109 87.679653 -3.793555 37.472484 -16.423548 21.721194 -2.796783 -0.265006 -0.075508 14.421261 -3.145401 4.691070 -0.245100 7.125000 0.000000 0.000000 17.621200 -25.090400 8.892800 
